<?xml version="1.0" encoding="UTF-8"?>
<svg height="128px" viewBox="0 0 128 128" width="128px" xmlns="http://www.w3.org/2000/svg" xmlns:xlink="http://www.w3.org/1999/xlink">
    <linearGradient id="a" gradientUnits="userSpaceOnUse" x1="8.0000155" x2="120.0000155" y1="115.999977" y2="115.999977">
        <stop offset="0" stop-color="#77767b"/>
        <stop offset="0.0357143" stop-color="#c0bfbc"/>
        <stop offset="0.0713653" stop-color="#9a9996"/>
        <stop offset="0.928571" stop-color="#9a9996"/>
        <stop offset="0.964286" stop-color="#c0bfbc"/>
        <stop offset="1" stop-color="#77767b"/>
    </linearGradient>
    <clipPath id="b">
        <path d="m 2 32 h 122 v 46 h -122 z m 0 0"/>
    </clipPath>
    <clipPath id="c">
        <path d="m 9.03125 32.949219 h 108.019531 l 15.429688 15.429687 l -69.441407 69.441406 l -69.441406 -69.441406 z m 0 0"/>
    </clipPath>
    <linearGradient id="d" gradientTransform="matrix(0.482231 -0.482231 -0.482231 -0.482231 -66.198607 235.48561)" gradientUnits="userSpaceOnUse" x1="344" x2="297.378418" y1="76" y2="29.378424">
        <stop offset="0" stop-color="#d5d3cf"/>
        <stop offset="1" stop-color="#ffffff"/>
    </linearGradient>
    <path d="m 16 40 h 96 c 4.417969 0 8 3.582031 8 8 v 60 c 0 4.417969 -3.582031 8 -8 8 h -96 c -4.417969 0 -8 -3.582031 -8 -8 v -60 c 0 -4.417969 3.582031 -8 8 -8 z m 0 0" fill="url(#a)"/>
    <path d="m 16 28 h 96 c 4.417969 0 8 3.582031 8 8 v 68 c 0 4.417969 -3.582031 8 -8 8 h -96 c -4.417969 0 -8 -3.582031 -8 -8 v -68 c 0 -4.417969 3.582031 -8 8 -8 z m 0 0" fill="#deddda"/>
    <g clip-path="url(#b)">
        <g clip-path="url(#c)">
            <path d="m 78.46875 71.527344 l 38.582031 -38.578125 c 8.519531 -8.523438 8.519531 -22.339844 0 -30.863281 l -38.582031 -38.578126 c -8.519531 -8.523437 -22.339844 -8.523437 -30.859375 0 l -38.578125 38.578126 c -8.523438 8.523437 -8.523438 22.339843 0 30.863281 l 38.578125 38.578125 c 8.519531 8.523437 22.339844 8.523437 30.859375 0 z m 0 0" fill="url(#d)"/>
        </g>
    </g>
    <path d="m 73 79 c 0 5.523438 -4.476562 10 -10 10 s -10 -4.476562 -10 -10 s 4.476562 -10 10 -10 s 10 4.476562 10 10 z m 0 0" fill="#a02c2c"/>
</svg>
